<?xml version="1.0" encoding="UTF-8"?>
<svg xmlns="http://www.w3.org/2000/svg" xmlns:xlink="http://www.w3.org/1999/xlink" width="32pt" height="32pt" viewBox="0 0 32 32" version="1.1">
<g id="surface74">
<path style=" stroke:none;fill-rule:nonzero;fill:rgb(100%,100%,100%);fill-opacity:1;" d="M 3.5 3.5 L 28.5 3.5 L 28.5 8.5 L 3.5 8.5 Z M 3.5 3.5 "/>
<path style=" stroke:none;fill-rule:nonzero;fill:rgb(100%,100%,100%);fill-opacity:1;" d="M 3.5 13.5 L 28.5 13.5 L 28.5 18.5 L 3.5 18.5 Z M 3.5 13.5 "/>
<path style=" stroke:none;fill-rule:nonzero;fill:rgb(100%,100%,100%);fill-opacity:1;" d="M 3.5 23.5 L 28.5 23.5 L 28.5 28.5 L 3.5 28.5 Z M 3.5 23.5 "/>
<path style=" stroke:none;fill-rule:nonzero;fill:rgb(0%,0%,0%);fill-opacity:1;" d="M 4 4.5 L 28 4.5 L 28 7.5 L 4 7.5 Z M 4 4.5 "/>
<path style=" stroke:none;fill-rule:nonzero;fill:rgb(0%,0%,0%);fill-opacity:1;" d="M 4 14.5 L 28 14.5 L 28 17.5 L 4 17.5 Z M 4 14.5 "/>
<path style=" stroke:none;fill-rule:nonzero;fill:rgb(0%,0%,0%);fill-opacity:1;" d="M 4 24.5 L 28 24.5 L 28 27.5 L 4 27.5 Z M 4 24.5 "/>
</g>
</svg>
